<mxfile host="app.diagrams.net" modified="2024-04-02T16:17:24.952Z" agent="Mozilla/5.0 (Windows NT 10.0; Win64; x64) AppleWebKit/537.36 (KHTML, like Gecko) Chrome/123.0.0.0 Safari/537.36 Edg/123.0.0.0" version="24.0.6" etag="68znFEFOI9T0e3Ja9TMh" type="github">
  <diagram name="Страница — 1" id="bpgYWlANby39Ml3Qfu3q">
    <mxGraphModel>
      <root>
        <mxCell id="0" />
        <mxCell id="1" parent="0" />
      </root>
    </mxGraphModel>
  </diagram>
</mxfile>
